<?xml version="1.0" standalone="no"?>
<!DOCTYPE svg PUBLIC "-//W3C//DTD SVG 20010904//EN"
 "http://www.w3.org/TR/2001/REC-SVG-20010904/DTD/svg10.dtd">
<svg version="1.0" xmlns="http://www.w3.org/2000/svg"
 width="500.000000pt" height="500.000000pt" viewBox="0 0 500.000000 500.000000"
 preserveAspectRatio="xMidYMid meet">
<metadata>
Created by potrace 1.14, written by Peter Selinger 2001-2017
</metadata>
<g transform="translate(0.000000,500.000000) scale(0.100000,-0.100000)"
fill="#000000" stroke="none">
<path d="M3363 4599 c-223 -22 -526 -194 -803 -455 l-67 -64 -19 21 c-47 53
-248 217 -343 281 -387 258 -702 287 -907 82 -179 -180 -227 -559 -128 -1023
13 -63 21 -118 17 -121 -5 -4 -53 -22 -107 -40 -362 -119 -629 -301 -749 -510
-85 -150 -75 -349 26 -502 49 -72 165 -183 260 -247 111 -74 309 -169 463
-220 l131 -44 -19 -76 c-167 -685 -54 -1162 301 -1265 257 -75 642 93 1009
438 l69 65 94 -86 c248 -226 472 -360 699 -418 48 -13 93 -16 171 -13 91 4
114 8 170 35 151 71 241 192 292 390 19 77 22 113 21 293 0 217 -15 339 -67
545 l-23 90 130 43 c72 24 190 72 262 106 365 176 553 390 554 632 0 129 -32
213 -129 338 -116 148 -385 310 -676 406 -55 18 -104 36 -109 41 -5 4 3 63 18
136 39 191 49 306 43 487 -3 118 -10 182 -26 239 -80 301 -273 445 -558 416z
m-1679 -225 c163 -42 381 -179 594 -374 l71 -66 -60 -69 c-95 -108 -279 -340
-303 -382 -1 0 -64 -9 -141 -18 -141 -17 -433 -67 -491 -84 l-32 -9 -21 102
c-38 184 -45 249 -45 416 1 182 20 282 69 366 30 51 98 111 140 123 49 15 152
12 219 -5z m1875 -11 c174 -86 227 -410 140 -854 -12 -59 -25 -112 -29 -118
-5 -9 -47 -4 -166 19 -87 17 -236 41 -329 52 l-171 21 -44 61 c-64 88 -153
199 -237 294 -40 45 -73 87 -73 91 0 12 113 116 197 183 299 238 557 329 712
251z m-931 -733 l104 -125 -228 -3 c-125 -1 -229 0 -232 2 -4 5 85 117 177
223 37 42 48 50 60 40 8 -7 61 -68 119 -137z m210 -346 l62 -7 89 -136 c108
-166 221 -362 302 -523 l60 -120 -96 -180 c-87 -163 -132 -239 -261 -446 -25
-40 -48 -65 -64 -70 -33 -9 -838 -9 -870 0 -38 12 -222 312 -356 580 l-59 118
54 107 c75 153 198 365 306 530 l94 142 43 4 c76 6 633 7 696 1z m-1018 -40
c0 -3 -8 -18 -19 -32 -35 -51 -134 -217 -202 -340 l-67 -123 -30 73 c-63 150
-123 341 -110 349 9 6 264 57 358 72 42 7 70 7 70 1z m1620 -35 c85 -17 159
-34 163 -38 8 -8 -43 -168 -95 -301 -17 -41 -34 -86 -40 -100 -8 -22 -13 -16
-64 79 -30 57 -87 155 -126 219 -39 65 -80 132 -91 151 l-21 34 60 -7 c32 -4
129 -21 214 -37z m-2141 -439 c13 -30 43 -103 67 -161 l45 -106 -59 -139 c-33
-76 -81 -197 -107 -269 -26 -71 -48 -131 -50 -133 -9 -10 -248 81 -366 139
-211 105 -347 219 -400 334 -27 59 -25 157 5 220 69 150 309 312 620 421 l121
42 51 -147 c28 -80 61 -171 73 -201z m2857 220 c205 -99 359 -224 410 -335 30
-63 32 -161 5 -220 -53 -116 -189 -229 -402 -334 -120 -60 -363 -151 -373
-140 -2 2 -27 69 -56 149 -29 80 -77 200 -106 267 l-53 123 30 67 c61 136 174
433 205 540 4 17 206 -53 340 -117z m-2542 -882 c43 -78 95 -169 116 -202 22
-34 35 -62 30 -64 -4 -2 -75 9 -157 24 -81 14 -160 29 -175 31 l-26 5 23 66
c28 82 105 282 109 282 2 0 38 -64 80 -142z m1927 -56 c27 -73 49 -136 49
-141 0 -13 -345 -80 -356 -68 -3 3 10 29 29 58 18 30 60 101 92 159 32 58 69
125 83 149 l25 44 14 -34 c8 -19 36 -94 64 -167z m-2066 -377 c66 -13 194 -35
284 -47 l163 -23 101 -135 c104 -140 222 -285 289 -356 l39 -41 -88 -81 c-206
-188 -428 -327 -593 -368 -121 -30 -237 -6 -302 63 -129 137 -149 489 -52 906
14 59 29 107 32 107 4 0 61 -11 127 -25z m2209 -97 c48 -223 58 -318 53 -503
-4 -137 -9 -183 -26 -237 -57 -177 -172 -254 -339 -228 -177 29 -426 176 -647
383 l-80 75 43 48 c76 88 267 327 327 410 l58 82 71 7 c84 8 398 61 441 74 70
22 69 23 99 -111z m-941 -60 c-42 -56 -134 -167 -220 -267 l-28 -33 -92 108
c-51 60 -117 142 -148 182 l-56 72 296 0 296 0 -48 -62z"/>
<path d="M2370 2986 c-74 -22 -112 -41 -172 -87 -130 -99 -198 -236 -198 -399
0 -117 30 -209 99 -300 98 -130 238 -200 401 -200 194 0 359 102 448 275 52
103 67 242 38 351 -41 155 -166 293 -314 347 -71 25 -235 33 -302 13z"/>
</g>
</svg>
